# xmcd CD database file
#
# Track frame offsets:
#	183
#	39635
#	54370
#	77330
#	91518
#	111385
#	141113
#	176113
#	202238
#	228678
#	256090
#	283750
#	305725
#	325023
#
# Disc length: 4721 seconds
#
# Revision: 1
# Processed by: cddbd v1.5.1PL0 Copyright (c) Steve Scherf et al.
# Submitted via: CDex 1.50
#
DISCID=c3126f0e
DTITLE=Various Artist - Jazz on Cd - Home Cooking
DYEAR=1900
DGENRE=Jazz
TTITLE0=Down Home - Perfect Pitch
TTITLE1=I want a little boy - Helen Merill
TTITLE2=Did you call her today - Ben Webster and Danish Radio Big Band
TTITLE3=Lester's Happy - Karin Krog Trio
TTITLE4=Mellow - Jim Richardson Quartet
TTITLE5=Chasin' the Blimpt - Tommy Chase w John Eardley Quartet
TTITLE6=Snow Palace - John Williams Octet
TTITLE7=Whisper not - John Horter Trio
TTITLE8=Passport - Guy Barker w Brian Dee Trio
TTITLE9='Round Midnight - Mick Pyne
TTITLE10=Enchanted into cry of triumph - Cathy Stobart Quintet
TTITLE11=November Song - Doug White
TTITLE12=Blues for Adolphe Sax - Don Rendell and Barbara Thompson
TTITLE13=Bonus track
EXTD=
EXTT0=
EXTT1=
EXTT2=
EXTT3=
EXTT4=
EXTT5=
EXTT6=
EXTT7=
EXTT8=
EXTT9=
EXTT10=
EXTT11=
EXTT12=
EXTT13=
PLAYORDER=
